<svg width="100" height="100" viewBox="0 0 100 100" fill="none" xmlns="http://www.w3.org/2000/svg">
<path d="M50 0C44.4771 0 40 4.47708 40 10C40 15.5229 44.4771 20 50 20C55.5206 19.9946 59.9946 15.5206 60 10C60 4.47708 55.5229 0 50 0ZM50 16.6667C46.3181 16.6667 43.3333 13.6819 43.3333 10C43.3333 6.31812 46.3181 3.33333 50 3.33333C53.6819 3.33333 56.6667 6.31812 56.6667 10C56.6667 13.6819 53.6819 16.6667 50 16.6667Z" fill="#D8AAF8" fill-opacity="0.77"/>
<path d="M56.6667 21.666H56.2733L55.9217 21.841C52.1923 23.6979 47.8077 23.6979 44.0783 21.841L43.7267 21.666H43.3333C38.7333 21.6714 35.0054 25.3993 35 29.9994V39.9994C35 42.7608 37.2385 44.9994 40 44.9994H60C62.7615 44.9994 65 42.7608 65 39.9994V29.9994C64.9946 25.3993 61.2667 21.6714 56.6667 21.666ZM61.6667 39.9994C61.6667 40.9198 60.9204 41.666 60 41.666H40C39.0796 41.666 38.3333 40.9198 38.3333 39.9994V29.9994C38.3338 27.376 40.3615 25.1989 42.9783 25.0127C47.4315 27.0794 52.5688 27.0794 57.0217 25.0127C59.6383 25.1989 61.6663 27.376 61.6667 29.9994V39.9994Z" fill="#D8AAF8" fill-opacity="0.77"/>
<path d="M85 55C79.4771 55 75 59.4771 75 65C75 70.5229 79.4771 75 85 75C90.5229 75 95 70.5229 95 65C94.9946 59.4794 90.5206 55.0054 85 55ZM85 71.6667C81.3181 71.6667 78.3333 68.6819 78.3333 65C78.3333 61.3181 81.3181 58.3333 85 58.3333C88.6819 58.3333 91.6667 61.3181 91.6667 65C91.6667 68.6819 88.6819 71.6667 85 71.6667Z" fill="#D8AAF8" fill-opacity="0.77"/>
<path d="M91.6667 76.666H91.2733L90.9217 76.8327C87.1923 78.6893 82.8077 78.6893 79.0783 76.8327L78.7267 76.666H78.3333C73.7333 76.6714 70.0054 80.3994 70 84.9994V94.9994C70 97.7608 72.2385 99.9994 75 99.9994H95C97.7615 99.9994 100 97.7608 100 94.9994V84.9994C99.9946 80.3994 96.2667 76.6714 91.6667 76.666ZM96.6667 94.9994C96.6667 95.9198 95.9204 96.666 95 96.666H75C74.0796 96.666 73.3333 95.9198 73.3333 94.9994V84.9994C73.3338 82.376 75.3615 80.1989 77.9783 80.0127C82.4315 82.0793 87.5685 82.0793 92.0217 80.0127C94.6385 80.1989 96.6663 82.376 96.6667 84.9994V94.9994Z" fill="#D8AAF8" fill-opacity="0.77"/>
<path d="M15 55C9.47708 55 5 59.4771 5 65C5 70.5229 9.47708 75 15 75C20.5229 75 25 70.5229 25 65C24.9946 59.4794 20.5206 55.0054 15 55ZM15 71.6667C11.3181 71.6667 8.33333 68.6819 8.33333 65C8.33333 61.3181 11.3181 58.3333 15 58.3333C18.6819 58.3333 21.6667 61.3181 21.6667 65C21.6667 68.6819 18.6819 71.6667 15 71.6667Z" fill="#D8AAF8" fill-opacity="0.77"/>
<path d="M21.6667 76.666H21.2733L20.9217 76.8327C17.1923 78.6893 12.8077 78.6893 9.07833 76.8327L8.72667 76.666H8.33333C3.73333 76.6714 0.00541667 80.3994 0 84.9994V94.9994C0 97.7608 2.23854 99.9994 5 99.9994H25C27.7615 99.9994 30 97.7608 30 94.9994V84.9994C29.9946 80.3994 26.2667 76.6714 21.6667 76.666ZM26.6667 94.9994C26.6667 95.9198 25.9204 96.666 25 96.666H5C4.07958 96.666 3.33333 95.9198 3.33333 94.9994V84.9994C3.33375 82.376 5.36146 80.1989 7.97833 80.0127C12.4315 82.0793 17.5685 82.0793 22.0217 80.0127C24.6385 80.1989 26.6663 82.376 26.6667 84.9994V94.9994Z" fill="#D8AAF8" fill-opacity="0.77"/>
<path d="M66.536 84.6411C66.5352 84.6393 66.5344 84.6374 66.5335 84.6353C66.1727 83.7884 65.1937 83.3945 64.3471 83.7553C56.821 86.9095 48.4627 87.4849 40.5754 85.392L42.1354 84.9336C43.0191 84.6749 43.5258 83.749 43.2671 82.8653C43.0083 81.9815 42.0825 81.4749 41.1987 81.7336L34.5321 83.6886C34.5071 83.6886 34.4887 83.717 34.4654 83.7253C34.311 83.7828 34.166 83.8632 34.0354 83.9636C33.9775 83.9949 33.9218 84.0299 33.8687 84.0686C33.6929 84.2255 33.5535 84.4188 33.4604 84.6353C33.37 84.8532 33.3268 85.0878 33.3337 85.3236C33.3743 85.5493 33.43 85.772 33.5004 85.9903C33.5104 86.0136 33.5004 86.0403 33.5187 86.0636L36.8521 92.442C37.2783 93.2584 38.2856 93.5749 39.1021 93.1486C39.9185 92.7224 40.235 91.7151 39.8087 90.8986L38.4521 88.3053C47.4133 90.999 57.0344 90.4755 65.6504 86.8253C66.4979 86.4668 66.8946 85.4888 66.536 84.6411Z" fill="#D8AAF8" fill-opacity="0.77"/>
<path d="M94.5118 43.8214C93.861 43.1708 92.806 43.1708 92.1552 43.8214L89.7968 46.1797C88.4168 31.5818 79.1487 18.9139 65.6535 13.1797C64.8066 12.8189 63.8277 13.2128 63.4668 14.0597C63.106 14.9066 63.5 15.8856 64.3468 16.2464C76.4531 21.3916 84.8685 32.6358 86.3918 45.7014L84.5118 43.8214C83.8497 43.1818 82.7947 43.2001 82.1552 43.8622C81.5314 44.5081 81.5314 45.532 82.1552 46.1781L87.1552 51.1781C87.8052 51.8297 88.8606 51.8312 89.5122 51.181C89.5133 51.1799 89.5143 51.1789 89.5152 51.1781L94.5152 46.1781C95.165 45.5264 95.1635 44.4714 94.5118 43.8214Z" fill="#D8AAF8" fill-opacity="0.77"/>
<path d="M36.6184 14.432C36.6129 14.3347 36.5986 14.2382 36.575 14.1436C36.575 14.1286 36.5567 14.1186 36.55 14.102C36.5434 14.0853 36.55 14.0736 36.55 14.0603C36.5046 13.9793 36.4521 13.9022 36.3934 13.8303C36.3394 13.7326 36.2757 13.6405 36.2034 13.5553C36.1048 13.468 35.9957 13.3936 35.8784 13.3336C35.8198 13.2838 35.7573 13.2386 35.6917 13.1986L29.025 10.1536C28.1736 9.80405 27.1998 10.2109 26.8502 11.0624C26.5196 11.8676 26.8644 12.7918 27.6417 13.1836L31.0934 14.762C18.099 21.7163 9.99063 35.262 10 50.0003C10 50.9207 10.7463 51.667 11.6667 51.667C12.5871 51.667 13.3333 50.9207 13.3333 50.0003C13.325 37.0226 20.1877 25.0103 31.3717 18.427L30.1667 20.9453C29.7694 21.7738 30.1175 22.7676 30.945 23.167C31.1698 23.2768 31.4165 23.3338 31.6667 23.3336C32.3067 23.3328 32.8896 22.9655 33.1667 22.3886L36.5 15.4336C36.5 15.417 36.5 15.3986 36.5134 15.382C36.5567 15.268 36.5869 15.1495 36.6034 15.0286C36.6319 14.9388 36.6532 14.847 36.6667 14.7536C36.6611 14.6451 36.645 14.5374 36.6184 14.432Z" fill="#D8AAF8" fill-opacity="0.77"/>
</svg>
