<svg width="100" height="100" viewBox="0 0 100 100" fill="none" xmlns="http://www.w3.org/2000/svg">
<path d="M94.9943 45.7273C93.241 43.9752 91.1728 42.6547 88.9199 41.8096C91.7732 39.8766 93.6521 36.6088 93.6521 32.9102C93.6521 26.9869 88.8332 22.168 82.91 22.168C76.9867 22.168 72.1678 26.9869 72.1678 32.9102C72.1678 36.6053 74.0434 39.8703 76.8924 41.8041C73.6416 43.0176 70.8219 45.2053 68.8219 48.1297C65.9811 44.2611 61.9787 41.2969 57.3326 39.7555C62.6514 37.0658 66.3086 31.5514 66.3086 25.1953C66.3086 16.2027 58.9926 8.88672 50 8.88672C41.0074 8.88672 33.6914 16.2027 33.6914 25.1953C33.6914 31.5514 37.3486 37.0658 42.6672 39.7555C38.0187 41.2977 34.0148 44.2641 31.1738 48.1355C30.5834 47.277 29.917 46.4703 29.1742 45.7275C27.4209 43.9754 25.3527 42.6547 23.0998 41.8096C25.9531 39.8766 27.8322 36.6088 27.8322 32.9102C27.8322 26.9869 23.0133 22.168 17.09 22.168C11.1668 22.168 6.34785 26.9869 6.34785 32.9102C6.34785 36.6104 8.22832 39.8793 11.0838 41.8121C10.1486 42.1627 9.24297 42.5941 8.3793 43.1068C7.68359 43.5197 7.45449 44.4184 7.86719 45.1141C8.28027 45.81 9.17891 46.0391 9.87461 45.626C12.0498 44.3348 14.5449 43.6523 17.0898 43.6523C20.8707 43.6523 24.4268 45.1252 27.1027 47.7992C28.0225 48.7189 28.8041 49.7539 29.4373 50.8812C27.6664 54.1686 26.6602 57.9258 26.6602 61.9141V64.1602C26.6602 64.9693 27.316 65.625 28.125 65.625C28.934 65.625 29.5898 64.9693 29.5898 64.1602V61.9141C29.5898 50.66 38.7457 41.5039 50 41.5039C61.2543 41.5039 70.4102 50.66 70.4102 61.9141V82.3242H29.5898V70.4428C29.5898 69.6336 28.934 68.9779 28.125 68.9779C27.316 68.9779 26.6602 69.6336 26.6602 70.4428V71.9727H2.92969V57.8125C2.92969 54.8248 3.84883 51.9684 5.5877 49.552C6.06016 48.8953 5.91094 47.9799 5.2543 47.5072C4.59766 47.0346 3.68223 47.1842 3.20957 47.8406C1.10996 50.7588 0 54.2068 0 57.8125V79.2969C0 80.1061 0.655859 80.7617 1.46484 80.7617H26.6602V89.6484C26.6602 90.4576 27.316 91.1133 28.125 91.1133H71.875C72.684 91.1133 73.3398 90.4576 73.3398 89.6484V83.7891V80.7617H87.3697C88.1787 80.7617 88.8346 80.1061 88.8346 79.2969C88.8346 78.4877 88.1787 77.832 87.3697 77.832H73.3398V74.9023H97.0703V77.832H93.75C92.941 77.832 92.2852 78.4877 92.2852 79.2969C92.2852 80.1061 92.941 80.7617 93.75 80.7617H98.5352C99.3441 80.7617 100 80.1061 100 79.2969V57.8125C100 53.2496 98.2225 48.9578 94.9943 45.7273ZM17.0898 40.7227C12.782 40.7227 9.27734 37.218 9.27734 32.9102C9.27734 28.6023 12.782 25.0977 17.0898 25.0977C21.3977 25.0977 24.9023 28.6023 24.9023 32.9102C24.9023 37.218 21.3977 40.7227 17.0898 40.7227ZM36.6211 25.1953C36.6211 17.8182 42.6229 11.8164 50 11.8164C57.3771 11.8164 63.3789 17.8182 63.3789 25.1953C63.3789 32.5725 57.3771 38.5742 50 38.5742C42.6229 38.5742 36.6211 32.5725 36.6211 25.1953ZM26.6602 77.832H2.92969V74.9023H26.6602V77.832ZM70.4102 88.1836H29.5898V85.2539H70.4102V88.1836ZM75.0977 32.9102C75.0977 28.6023 78.6023 25.0977 82.9102 25.0977C87.218 25.0977 90.7227 28.6023 90.7227 32.9102C90.7227 37.218 87.218 40.7227 82.9102 40.7227C78.6023 40.7227 75.0977 37.218 75.0977 32.9102ZM97.0703 71.9727H73.3398V61.9141C73.3398 57.9256 72.3334 54.168 70.5623 50.8807C73.0705 46.4039 77.7346 43.6523 82.9102 43.6523C86.691 43.6523 90.2471 45.1252 92.9229 47.799C95.5973 50.4756 97.0703 54.0318 97.0703 57.8125V71.9727Z" fill="#D8AAF8" fill-opacity="0.77"/>
<path d="M61.3216 52.6176C59.7888 51.1961 58.0611 50.5545 56.1868 50.7045C53.5417 50.9191 51.3085 52.6967 49.9992 54.0086C48.688 52.6969 46.4501 50.9162 43.8076 50.7041C41.9359 50.5533 40.2099 51.1973 38.6787 52.6176C36.9689 54.2029 36.1476 56.1578 36.2371 58.4275C36.5183 65.5508 46.0249 73.6004 48.9314 75.8974C49.2458 76.1463 49.6228 76.2707 49.9999 76.2707C50.3765 76.2707 50.7531 76.1465 51.0673 75.8984L51.0675 75.8982C52.1654 75.0308 55.014 72.6894 57.747 69.69C61.6113 65.449 63.6355 61.6599 63.7632 58.4281C63.8529 56.158 63.0314 54.2031 61.3216 52.6176ZM60.8357 58.3123C60.7372 60.8002 58.9204 64.0523 55.5814 67.7168C53.4788 70.024 51.3011 71.9226 49.9999 72.9945C48.6984 71.9222 46.5201 70.0228 44.4185 67.7164C41.0794 64.0517 39.2626 60.7998 39.1644 58.3119C39.1095 56.9166 39.6021 55.7566 40.6708 54.7654C41.5052 53.9916 42.3656 53.6129 43.2929 53.6129C43.3855 53.6129 43.479 53.6168 43.573 53.6242C46.2669 53.8406 48.7378 56.9689 48.8466 57.1084C49.1242 57.4631 49.5507 57.6687 50.0011 57.6687C50.0019 57.6687 50.0027 57.6687 50.0035 57.6687C50.4546 57.668 50.8816 57.458 51.1587 57.1019C51.262 56.9689 53.7222 53.8437 56.4238 53.6246C57.4589 53.5385 58.4107 53.9135 59.3294 54.7656C60.3982 55.7566 60.8908 56.917 60.8357 58.3123Z" fill="#D8AAF8" fill-opacity="0.77"/>
</svg>
