<svg width="100" height="100" viewBox="0 0 100 100" fill="none" xmlns="http://www.w3.org/2000/svg">
<path d="M67.3795 29.6875C72.7643 29.6875 77.1451 34.0684 77.1451 39.4531C77.1451 41.6105 75.3963 43.3594 73.2389 43.3594C71.0814 43.3594 69.3326 41.6105 69.3326 39.4531C69.3326 38.3762 68.4564 37.5 67.3795 37.5C66.3025 37.5 65.4264 38.3762 65.4264 39.4531C65.4264 41.6105 63.6775 43.3594 61.5201 43.3594C59.3627 43.3594 57.6139 41.6105 57.6139 39.4531C57.6139 34.0684 61.9947 29.6875 67.3795 29.6875ZM42.5748 39.4531C42.5748 34.0684 38.1939 29.6875 32.8092 29.6875C27.4244 29.6875 23.0436 34.0684 23.0436 39.4531C23.0436 41.6105 24.7924 43.3594 26.9498 43.3594C29.1072 43.3594 30.8561 41.6105 30.8561 39.4531C30.8561 38.3762 31.7322 37.5 32.8092 37.5C33.8861 37.5 34.7623 38.3762 34.7623 39.4531C34.7623 41.6105 36.5111 43.3594 38.6686 43.3594C40.826 43.3594 42.5748 41.6105 42.5748 39.4531ZM68.7467 10.1375C68.7467 4.3582 72.9449 0 78.5123 0C80.9793 0 82.9283 0.653516 84.4143 1.5625C85.9016 0.656641 87.8314 0 90.2311 0C95.7984 0 99.9967 4.3582 99.9967 10.1375C99.9967 16.0826 95.1932 19.6713 91.3338 22.5551C89.7355 23.749 88.2262 24.877 87.4168 25.884C86.6754 26.8068 85.5555 27.3436 84.3717 27.3436C83.1879 27.3436 82.068 26.8066 81.3266 25.884C80.5172 24.8768 79.0078 23.749 77.4096 22.5551C73.5502 19.6715 68.7467 16.0826 68.7467 10.1375V10.1375ZM76.5592 10.1375C76.5592 12.1674 79.3688 14.2666 82.0857 16.2965C82.8504 16.8678 83.6256 17.4469 84.3717 18.0494C85.1178 17.4469 85.893 16.8678 86.6576 16.2965C89.3746 14.2664 92.1842 12.1674 92.1842 10.1375C92.1842 8.63809 91.4904 7.8125 90.2311 7.8125C88.7117 7.8125 88.09 8.45918 87.8875 8.75098C87.3275 10.2338 85.983 11.0715 84.3871 11.1062C82.8205 11.1371 81.4625 10.0828 80.8209 8.66074C80.6996 8.46973 80.1621 7.8125 78.5123 7.8125C77.2529 7.8125 76.5592 8.63828 76.5592 10.1375V10.1375ZM99.9904 82.7937C99.9904 88.748 95.1486 92.3367 91.2582 95.2201C89.6459 96.415 88.1231 97.5438 87.3064 98.5523C86.5647 99.468 85.4492 100 84.2709 100C83.0926 100 81.9771 99.468 81.2354 98.5523C80.4186 97.5438 78.8957 96.4152 77.2836 95.2201C73.3932 92.3365 68.5516 88.748 68.5516 82.7937C68.5516 77.0145 72.7703 72.6562 78.3645 72.6562C80.8535 72.6562 82.8184 73.315 84.3137 74.2297C85.8109 73.3184 87.7562 72.6562 90.1775 72.6562C95.7717 72.6562 99.9904 77.0145 99.9904 82.7937V82.7937ZM92.1779 82.7937C92.1779 81.2943 91.4674 80.4688 90.1775 80.4688C88.4389 80.4688 87.8092 81.3426 87.8092 81.3428C87.1514 82.7488 85.7283 83.6377 84.1717 83.5926C82.6822 83.5549 81.35 82.674 80.7275 81.332C80.6082 81.1434 80.0621 80.4689 78.3643 80.4689C77.0744 80.4689 76.3639 81.2947 76.3639 82.7939C76.3639 84.8145 79.1963 86.9137 81.9354 88.9437C82.7168 89.523 83.509 90.1102 84.2707 90.7219C85.0324 90.1104 85.8248 89.523 86.6061 88.9437C89.3455 86.9135 92.1779 84.8143 92.1779 82.7937V82.7937ZM22.71 73.9311C21.0977 75.126 19.5748 76.2545 18.7582 77.2633C18.0164 78.1789 16.901 78.7109 15.7225 78.7109C14.5439 78.7109 13.4287 78.1789 12.6869 77.2633C11.8701 76.2549 10.3473 75.1262 8.73516 73.9311C4.84473 71.0477 0.00292969 67.459 0.00292969 61.5047C0.00292969 55.7254 4.22168 51.3672 9.81582 51.3672C12.3049 51.3672 14.2697 52.026 15.765 52.9406C17.2623 52.0293 19.2076 51.3672 21.6291 51.3672C27.2234 51.3672 31.442 55.7254 31.442 61.5047C31.442 67.4592 26.6004 71.0477 22.71 73.9311V73.9311ZM23.6295 61.5047C23.6295 60.0053 22.9189 59.1797 21.6291 59.1797C20.0744 59.1797 19.4396 59.8344 19.2328 60.1293C18.6707 61.607 17.3301 62.4395 15.7379 62.4744C14.1748 62.509 12.8213 61.4557 12.177 60.0393C12.0529 59.8459 11.5031 59.1797 9.81582 59.1797C8.52598 59.1797 7.81543 60.0055 7.81543 61.5047C7.81543 63.5252 10.6479 65.6244 13.3871 67.6545C14.1684 68.2338 14.9607 68.8211 15.7225 69.4326C16.4842 68.8209 17.2764 68.2338 18.0578 67.6545C20.7971 65.6244 23.6295 63.5252 23.6295 61.5047V61.5047ZM40.4426 69.9873C43.4891 71.1103 46.7035 71.6797 49.9967 71.6797C62.2543 71.6797 69.2473 63.8422 69.5391 63.5086C70.9592 61.8846 70.7936 59.4166 69.1693 57.9967C67.5449 56.5768 65.0773 56.742 63.6574 58.3664C63.6094 58.4215 58.6074 63.8672 49.9967 63.8672C47.6285 63.8672 45.323 63.46 43.1445 62.657C41.1211 61.9113 38.8746 62.9467 38.1283 64.9713C37.3822 66.9953 38.4184 69.2412 40.4426 69.9873V69.9873ZM92.2229 31.0787C90.1865 31.7914 89.1137 34.0199 89.8264 36.0563C91.3908 40.5254 92.184 45.2168 92.184 50C92.184 53.8705 91.6477 57.7162 90.5898 61.4299C89.999 63.5047 91.202 65.6658 93.2768 66.2568C93.6344 66.3586 93.9945 66.4072 94.3486 66.4072C96.0498 66.4072 97.6145 65.2873 98.1037 63.5701C99.3598 59.1602 99.9965 54.5945 99.9965 50C99.9965 44.3357 99.0557 38.776 97.2002 33.475C96.4875 31.4389 94.2596 30.3658 92.2229 31.0787V31.0787ZM4.04336 44.6492C4.30469 44.7021 4.56465 44.7273 4.82129 44.7273C6.6418 44.7273 8.27148 43.4475 8.6459 41.5941C12.6016 22.0197 29.9922 7.8125 49.9967 7.8125C54.9357 7.8125 56.8242 8.24336 57.407 8.42852C59.4631 9.08184 61.6592 7.94512 62.3131 5.88926C62.9666 3.8332 61.8297 1.63672 59.7736 0.983203C57.6924 0.321484 54.4943 0 49.9967 0C38.3875 0 27.076 4.06855 18.1453 11.4564C9.33438 18.7453 3.24102 28.8988 0.988281 40.0467C0.560938 42.1611 1.92871 44.2219 4.04336 44.6492V44.6492ZM59.6531 91.0779C56.5082 91.8143 53.2594 92.1875 49.9967 92.1875C41.1496 92.1875 32.682 89.4801 25.509 84.3576C23.7533 83.1035 21.3137 83.5103 20.0602 85.2662C18.8063 87.0219 19.2131 89.4613 20.9688 90.715C29.4744 96.7895 39.5119 100 49.9967 100C53.8582 100 57.7061 99.5574 61.434 98.685C63.5346 98.1932 64.8389 96.0918 64.3471 93.9912C63.8551 91.8902 61.7535 90.5867 59.6531 91.0779Z" fill="#D8AAF8" fill-opacity="0.77"/>
</svg>
