<svg width="17" height="17" viewBox="0 0 17 17" fill="none" xmlns="http://www.w3.org/2000/svg">
<path d="M13.4415 3.14551C13.214 3.14551 13.0288 3.33068 13.0288 3.55822C13.0288 3.78576 13.214 3.97094 13.4415 3.97094C13.6691 3.97094 13.8542 3.7858 13.8542 3.55822C13.8542 3.33065 13.6691 3.14551 13.4415 3.14551Z" fill="white"/>
<path d="M8.50016 4.84082C6.48267 4.84082 4.84131 6.48218 4.84131 8.49967C4.84131 10.5172 6.48267 12.1586 8.50016 12.1586C10.5177 12.1586 12.159 10.5172 12.159 8.49971C12.159 6.48222 10.5177 4.84082 8.50016 4.84082Z" fill="white"/>
<path d="M12.3397 0H4.66029C2.0906 0 0 2.0906 0 4.66032V12.3397C0 14.9094 2.0906 17 4.66029 17H12.3397C14.9094 17 17 14.9094 17 12.3397V4.66032C17 2.0906 14.9094 0 12.3397 0ZM8.5 13.1628C5.92892 13.1628 3.83725 11.0711 3.83725 8.5C3.83725 5.92892 5.92895 3.83729 8.5 3.83729C11.0711 3.83729 13.1628 5.92895 13.1628 8.5C13.1628 11.0711 11.0711 13.1628 8.5 13.1628ZM13.4417 4.97502C12.6605 4.97502 12.025 4.33952 12.025 3.55838C12.025 2.77724 12.6605 2.1417 13.4417 2.1417C14.2228 2.1417 14.8583 2.77721 14.8583 3.55835C14.8583 4.33948 14.2228 4.97502 13.4417 4.97502Z" fill="white"/>
</svg>
