<svg width="100" height="100" viewBox="0 0 100 100" fill="none" xmlns="http://www.w3.org/2000/svg">
<path d="M66.7881 64.1322C64.4187 64.1322 62.4912 62.4638 62.4912 60.4133C62.4912 58.3625 64.4187 56.6941 66.7881 56.6941C69.1574 56.6941 71.0849 58.3625 71.0849 60.4133C71.0849 61.4918 71.9596 62.3664 73.0381 62.3664C74.1166 62.3664 74.9912 61.4918 74.9912 60.4133C74.9912 56.8342 72.3244 53.8248 68.7412 53.008V51.9922C68.7412 50.9137 67.8666 50.0391 66.7881 50.0391C65.7096 50.0391 64.835 50.9137 64.835 51.9922V53.008C61.2518 53.8248 58.585 56.8342 58.585 60.4133C58.585 64.6177 62.2648 68.0384 66.7881 68.0384C69.1574 68.0384 71.0849 69.7068 71.0849 71.7576C71.0849 73.8084 69.1574 75.4767 66.7881 75.4767C64.4187 75.4767 62.4912 73.8084 62.4912 71.7576C62.4912 70.6791 61.6166 69.8045 60.5381 69.8045C59.4596 69.8045 58.585 70.6791 58.585 71.7576C58.585 75.3367 61.2518 78.346 64.835 79.1628V80.0066C64.835 81.0851 65.7096 81.9597 66.7881 81.9597C67.8666 81.9597 68.7412 81.0851 68.7412 80.0066V79.1628C72.3244 78.346 74.9912 75.3367 74.9912 71.7576C74.9912 67.5529 71.3113 64.1322 66.7881 64.1322Z" fill="#D8AAF8" fill-opacity="0.77"/>
<path d="M88.1802 52.5149C85.6289 48.5393 82.0343 45.358 77.7853 43.3155C76.8128 42.8479 75.6459 43.2573 75.1787 44.2295C74.7113 45.2018 75.1205 46.3686 76.0927 46.836C83.4972 50.3953 88.2814 58.0006 88.2814 66.2111C88.2814 69.7244 87.4154 73.2086 85.7773 76.2875C85.2706 77.2396 85.6318 78.4224 86.5841 78.9291C86.8763 79.0845 87.1904 79.1584 87.4997 79.1584C88.1986 79.1584 88.8746 78.7822 89.2257 78.1222C91.1634 74.4808 92.1876 70.3619 92.1876 66.2111C92.1876 61.3361 90.8019 56.6 88.1802 52.5149Z" fill="#D8AAF8" fill-opacity="0.77"/>
<path d="M69.858 40.8205L69.7266 40.8203C68.648 40.8203 67.7734 41.6947 67.7734 42.7734C67.7734 43.8521 68.648 44.7266 69.7266 44.7266L69.8397 44.7267C69.8428 44.7267 69.8457 44.7267 69.849 44.7267C70.9234 44.7267 71.7969 43.8584 71.802 42.7828C71.8068 41.7041 70.9365 40.8256 69.858 40.8205Z" fill="#D8AAF8" fill-opacity="0.77"/>
<path d="M57.501 85.586C50.0967 82.0265 45.3125 74.4212 45.3125 66.2109C45.3125 62.6976 46.1785 59.2134 47.8166 56.1345C48.3232 55.1824 47.9621 53.9996 47.0098 53.4929C46.0578 52.9863 44.8746 53.3474 44.3682 54.2998C42.4305 57.9414 41.4062 62.0601 41.4062 66.2109C41.4062 71.0859 42.792 75.8218 45.4137 79.9071C47.965 83.8827 51.5596 87.064 55.8086 89.1067C56.0814 89.238 56.3697 89.2999 56.6535 89.2999C57.3808 89.2999 58.0789 88.8919 58.4152 88.1927C58.8822 87.2204 58.4732 86.0534 57.501 85.586Z" fill="#D8AAF8" fill-opacity="0.77"/>
<path d="M63.867 87.6947L63.7539 87.6943C62.6703 87.6924 61.7969 88.5594 61.792 89.6383C61.7869 90.717 62.6576 91.5955 63.7361 91.6006L63.867 91.601C64.9455 91.601 65.8201 90.7264 65.8201 89.6479C65.8201 88.5693 64.9455 87.6947 63.867 87.6947Z" fill="#D8AAF8" fill-opacity="0.77"/>
<path d="M75.6657 34.2124C75.428 33.646 75.1368 33.1122 74.7979 32.6171H79.8827C84.8366 32.6171 88.867 28.5867 88.867 23.6328C88.867 18.6789 84.8366 14.6484 79.8827 14.6484H64.2421C65.2364 13.2027 65.8202 11.4537 65.8202 9.5703C65.8202 4.6164 61.7897 0.585938 56.8358 0.585938H8.98436C4.03046 0.585938 0 4.6164 0 9.5703C0 14.5242 4.03046 18.5547 8.98436 18.5547H24.625C23.6306 20.0004 23.0468 21.7494 23.0468 23.6328C23.0468 25.5162 23.6304 27.2652 24.625 28.7109H19.5312C14.5773 28.7109 10.5469 32.7413 10.5469 37.6952C10.5469 40.5404 11.8777 43.0792 13.9482 44.7265C11.8777 46.3737 10.5469 48.9126 10.5469 51.7577C10.5469 54.6028 11.8777 57.1417 13.9482 58.789C11.8777 60.4362 10.5469 62.9751 10.5469 65.8202C10.5469 68.6653 11.8777 71.2042 13.9482 72.8514C11.8777 74.4987 10.5469 77.0375 10.5469 79.8827C10.5469 84.8366 14.5773 88.867 19.5312 88.867H42.5487C48.6124 95.3527 57.2386 99.4141 66.7969 99.4141C85.1051 99.4141 100 84.5192 100 66.211C100 50.9733 89.6817 38.1021 75.6657 34.2124ZM79.8827 18.5547C82.6829 18.5547 84.9608 20.8328 84.9608 23.6328C84.9608 26.4328 82.6829 28.7109 79.8827 28.7109H67.3827H32.0312C29.231 28.7109 26.9531 26.4328 26.9531 23.6328C26.9531 20.8328 29.231 18.5547 32.0312 18.5547H79.8827ZM8.98436 14.6484C6.18417 14.6484 3.90624 12.3703 3.90624 9.5703C3.90624 6.7703 6.18417 4.49218 8.98436 4.49218H56.8358C59.636 4.49218 61.9139 6.7703 61.9139 9.5703C61.9139 12.3703 59.636 14.6484 56.8358 14.6484H8.98436ZM19.5312 32.6171H67.3827C68.1694 32.6171 68.9227 32.7999 69.5985 33.1273C68.6747 33.0497 67.7407 33.0079 66.7969 33.0079C57.628 33.0079 49.3155 36.7441 43.3011 42.7734H19.5312C16.7312 42.7734 14.4531 40.4952 14.4531 37.6952C14.4531 34.8952 16.7312 32.6171 19.5312 32.6171ZM19.5312 46.6796H39.9638C37.7466 49.7173 36.0324 53.1435 34.9437 56.8358H19.5312C16.731 56.8358 14.4531 54.5579 14.4531 51.7577C14.4531 48.9577 16.731 46.6796 19.5312 46.6796ZM19.5312 60.7421H34.0468C33.7505 62.522 33.5939 64.3483 33.5939 66.211C33.5939 67.802 33.7089 69.3665 33.9263 70.8983H19.5312C16.731 70.8983 14.4531 68.6204 14.4531 65.8202C14.4531 63.02 16.731 60.7421 19.5312 60.7421ZM19.5312 84.9608C16.731 84.9608 14.4531 82.6829 14.4531 79.8827C14.4531 77.0825 16.731 74.8045 19.5312 74.8045H34.7238C35.7093 78.479 37.3103 81.9034 39.4099 84.9608H19.5312ZM66.7969 95.5078C50.6427 95.5078 37.5001 82.3653 37.5001 66.211C37.5001 50.0567 50.6427 36.9142 66.7969 36.9142C82.9512 36.9142 96.0938 50.0567 96.0938 66.211C96.0938 82.3653 82.9512 95.5078 66.7969 95.5078Z" fill="#D8AAF8" fill-opacity="0.77"/>
</svg>
