<svg width="20" height="20" viewBox="0 0 20 20" fill="none" xmlns="http://www.w3.org/2000/svg">
<path d="M13.2108 13.0251C12.4032 13.0251 11.7447 12.3668 11.7447 11.559C11.7447 10.7514 12.4032 10.0929 13.2108 10.0929C14.0186 10.0929 14.6771 10.7514 14.6771 11.559C14.6771 12.3668 14.0186 13.0251 13.2108 13.0251ZM13.4698 15.4313C12.468 16.4302 10.5516 16.5091 9.98886 16.5091C9.42604 16.5091 7.50687 16.4302 6.5078 15.4313C6.3588 15.2821 6.3588 15.043 6.5078 14.8937C6.65703 14.7446 6.89621 14.7446 7.04544 14.8937C7.67567 15.5242 9.02367 15.7493 9.98886 15.7493C10.9513 15.7493 12.3019 15.5242 12.9324 14.8937C13.0814 14.7446 13.3206 14.7446 13.4698 14.8937C13.6162 15.043 13.6162 15.2821 13.4698 15.4313ZM5.29495 11.5592C5.29495 10.7515 5.95345 10.093 6.76117 10.093C7.56878 10.093 8.22727 10.7515 8.22727 11.5592C8.22727 12.3668 7.56878 13.0254 6.76117 13.0254C5.95345 13.0251 5.29495 12.3668 5.29495 11.5592ZM19.3652 10.093C19.3652 8.95894 18.4479 8.04158 17.3138 8.04158C16.7594 8.04158 16.2584 8.26096 15.8899 8.61848C14.4885 7.60544 12.5553 6.95256 10.4025 6.87657L11.3368 2.47814L14.39 3.12828C14.4267 3.90499 15.0625 4.52412 15.8478 4.52412C16.6581 4.52412 17.3139 3.86837 17.3139 3.0579C17.3139 2.24754 16.6581 1.5918 15.8478 1.5918C15.2708 1.5918 14.7783 1.92665 14.5392 2.41062L11.1285 1.68461C11.0328 1.66492 10.9344 1.68198 10.8527 1.73531C10.7712 1.78875 10.7148 1.87035 10.6952 1.96602C10.6952 1.96602 9.67083 6.84567 9.67083 6.87382C7.47872 6.93001 5.50884 7.58576 4.08497 8.61287C3.71636 8.25833 3.21819 8.04158 2.6667 8.04158C1.53259 8.04158 0.615234 8.96168 0.615234 10.093C0.615234 10.926 1.11328 11.6436 1.82808 11.9643C1.79718 12.1671 1.78024 12.3751 1.78024 12.5863C1.78024 15.7436 5.4554 18.3017 9.98886 18.3017C14.5222 18.3017 18.1974 15.7436 18.1974 12.5863C18.1974 12.378 18.1805 12.1726 18.1496 11.97C18.8616 11.6492 19.3652 10.9317 19.3652 10.093Z" fill="white"/>
</svg>
