<svg width="20" height="20" viewBox="0 0 20 20" fill="none" xmlns="http://www.w3.org/2000/svg">
<path d="M0.353259 9.6426L4.96166 11.3626L6.74539 17.0991C6.85952 17.4665 7.30879 17.6023 7.60699 17.3585L10.1758 15.2643C10.4451 15.0449 10.8286 15.034 11.11 15.2383L15.7432 18.6021C16.0622 18.8339 16.5141 18.6591 16.5941 18.2737L19.9882 1.9476C20.0755 1.52653 19.6618 1.17527 19.2609 1.33033L0.347859 8.6264C-0.118874 8.8064 -0.114808 9.4672 0.353259 9.6426ZM6.45792 10.447L15.4645 4.89986C15.6263 4.80046 15.7929 5.01933 15.6539 5.14827L8.22086 12.0576C7.95959 12.3008 7.79106 12.6263 7.74332 12.9795L7.49012 14.8559C7.45659 15.1065 7.10466 15.1313 7.03552 14.8889L6.06172 11.4672C5.95019 11.0769 6.11272 10.6601 6.45792 10.447Z" fill="white"/>
</svg>
